<?xml version="1.0" encoding="UTF-8"?>
<svg version="1.1" xmlns="http://www.w3.org/2000/svg" width="512" height="512">
<path d="M0 0 C168.96 0 337.92 0 512 0 C512 168.96 512 337.92 512 512 C343.04 512 174.08 512 0 512 C0 343.04 0 174.08 0 0 Z " fill="#05A750" transform="translate(0,0)"/>
<path d="M0 0 C0.33 0 0.66 0 1 0 C1 38.61 1 77.22 1 117 C8.59 117 16.18 117 24 117 C26.31497008 139.95268204 28.44775945 162.90955025 30.31326294 185.90335083 C31.29170171 197.93413822 32.34769752 209.94120485 33.6875 221.9375 C33.92095319 224.09501097 34.15405168 226.25256036 34.38671875 228.41015625 C34.67571673 231.08574717 34.96988824 233.75876647 35.30322266 236.42919922 C36.66253109 247.42031488 35.18453439 256.65315455 32.421875 267.3203125 C30.71001525 274.15834568 29.38243322 281.08783392 28 288 C-0.38 288 -28.76 288 -58 288 C-50.21331946 274.65140479 -50.21331946 274.65140479 -46.5625 269.3125 C-39.67668982 259.145345 -33.13255512 248.75409331 -26.53710938 238.39746094 C-25.37610501 236.58661868 -24.1931962 234.7897943 -23 233 C-23.25877173 227.61950157 -25.55636158 223.3381842 -27.94970703 218.63061523 C-28.35801254 217.81181381 -28.76631805 216.99301239 -29.18699646 216.1493988 C-30.53626841 213.44854761 -31.89687687 210.75358402 -33.2578125 208.05859375 C-34.20432725 206.17049318 -35.15018906 204.28206517 -36.09542847 202.39332581 C-38.0796369 198.43254798 -40.06897904 194.47440925 -42.0625 190.51831055 C-44.60089804 185.48087182 -47.13082228 180.43924335 -49.65738106 175.39585781 C-52.08390175 170.55286868 -54.51432475 165.71184177 -56.9453125 160.87109375 C-57.40127934 159.96255583 -57.85724617 159.05401791 -58.32703018 158.11794853 C-59.64057751 155.50262604 -60.95682012 152.88867846 -62.27392578 150.27514648 C-62.88582606 149.05620776 -62.88582606 149.05620776 -63.51008797 147.812644 C-65.34228915 144.18339431 -67.20564461 140.58828596 -69.215271 137.05374146 C-69.55128263 136.45820245 -69.88729427 135.86266344 -70.23348808 135.2490778 C-71.11549908 133.70277749 -72.01682422 132.16753647 -72.91989136 130.63343811 C-74.190366 127.53586422 -74.02905521 126.14240091 -73 123 C-71.6875 120.4140625 -71.6875 120.4140625 -70 117.625 C-69.36892334 116.57231934 -68.73784668 115.51963867 -68.08764648 114.43505859 C-67.39177709 113.29003131 -66.69589455 112.145012 -66 111 C-64.9067946 109.18264673 -63.81624307 107.36371678 -62.72569275 105.54476929 C-61.9676489 104.28092879 -61.2087341 103.01761032 -60.44898987 101.75479126 C-56.74690742 95.59780417 -53.11916446 89.39841201 -49.49868774 83.19320679 C-43.2305629 72.45359244 -36.88041055 61.7669416 -30.46166992 51.11645508 C-26.16074311 43.96810503 -21.93824196 36.77736978 -17.75 29.5625 C-13.4550953 22.17190154 -9.12501462 14.80604037 -4.6875 7.5 C-3.99382324 6.35059937 -3.99382324 6.35059937 -3.28613281 5.17797852 C-2.21972767 3.43393624 -1.11438936 1.71377937 0 0 Z " fill="#FDFEFD" transform="translate(202,156)"/>
<path d="M0 0 C2.84440397 2.84440397 4.45045707 5.23428107 6.44921875 8.6875 C6.94322929 9.53592468 6.94322929 9.53592468 7.44721985 10.40148926 C8.15865908 11.62447083 8.8679918 12.84867974 9.57543945 14.07397461 C11.09254169 16.70150908 12.61969926 19.3231498 14.14627075 21.94519043 C14.93575157 23.30141453 15.72470698 24.65794461 16.51315308 26.01477051 C20.30271575 32.53338501 24.14676208 39.01880948 28 45.5 C33.55578947 54.85487814 39.07044103 64.2326409 44.5625 73.625 C50.61148092 83.969411 56.72620865 94.27095027 62.91625977 104.53173828 C64.04421753 106.40263054 65.16765361 108.2762578 66.28613281 110.15283203 C67.50815167 112.1829152 68.75511739 114.19806845 70.01855469 116.20263672 C70.66985352 117.25854004 71.32115234 118.31444336 71.9921875 119.40234375 C72.59144043 120.35488037 73.19069336 121.30741699 73.80810547 122.28881836 C75.27497229 125.62547465 75.21694784 126.58404928 74 130 C72.62869371 133.03794409 71.10928681 135.98753319 69.56640625 138.94140625 C69.10511826 139.83731476 68.64383026 140.73322327 68.16856384 141.65628052 C67.16470316 143.6051121 66.1582116 145.55259021 65.14941406 147.49887085 C62.42972717 152.7493833 59.7339679 158.0121735 57.03515625 163.2734375 C56.46854279 164.37691025 55.90192932 165.480383 55.31814575 166.61729431 C49.24322053 178.45590258 43.224208 190.32205691 37.24923706 202.21139526 C36.08397376 204.52702038 34.91562112 206.84109347 33.74417114 209.15359497 C32.10303785 212.39417967 30.47211919 215.6397057 28.84375 218.88671875 C28.35116196 219.85441193 27.85857391 220.8221051 27.35105896 221.81912231 C26.9071431 222.70985443 26.46322723 223.60058655 26.00585938 224.51831055 C25.61636108 225.29144089 25.22686279 226.06457123 24.82556152 226.86112976 C23.75994134 229.23983455 23.75994134 229.23983455 24 233 C24.8082452 234.84244864 24.8082452 234.84244864 26.02734375 236.6328125 C26.48157715 237.34381104 26.93581055 238.05480957 27.40380859 238.78735352 C28.16298584 239.94448853 28.16298584 239.94448853 28.9375 241.125 C29.46166504 241.93960693 29.98583008 242.75421387 30.52587891 243.59350586 C32.33919881 246.40323852 34.16800868 249.20240706 36 252 C36.70624512 253.08007324 37.41249023 254.16014648 38.14013672 255.27294922 C38.88375795 256.40985108 39.62741071 257.54673232 40.37109375 258.68359375 C40.74372849 259.25331909 41.11636322 259.82304443 41.50028992 260.41003418 C43.34063659 263.22251719 45.18476878 266.03231773 47.03491211 268.83837891 C48.06563843 270.40531494 48.06563843 270.40531494 49.1171875 272.00390625 C49.72159668 272.91986572 50.32600586 273.8358252 50.94873047 274.77954102 C53.72066667 279.13143466 56.34535104 283.57558507 59 288 C30.62 288 2.24 288 -27 288 C-35.19613375 245.848455 -35.19613375 245.848455 -33.31323242 226.59741211 C-33.24002274 225.78655655 -33.16681305 224.97570099 -33.09138489 224.14027405 C-32.85296712 221.51861075 -32.60437551 218.89803005 -32.35546875 216.27734375 C-32.18267893 214.40155087 -32.01051824 212.52569994 -31.83894348 210.64979553 C-31.38789154 205.73753199 -30.92806685 200.8261288 -30.46636963 195.91485596 C-30.00777139 191.01862472 -29.55810643 186.12157416 -29.10742188 181.22460938 C-27.13233784 159.81053521 -25.09456226 138.40270936 -23 117 C-15.41 117 -7.82 117 0 117 C0 78.39 0 39.78 0 0 Z " fill="#FDFEFD" transform="translate(309,156)"/>
<path d="M0 0 C8.58862395 4.89312042 13.55125129 10.13416937 17.8125 19.0625 C19.81374517 28.52293173 19.1372581 38.42897655 13.98828125 46.7578125 C8.76521668 53.8705701 2.30270841 59.43555887 -6.5 61.3125 C-16.76082704 62.26185409 -24.88160972 61.18739092 -33.25 55.0625 C-40.29950895 49.20428437 -44.91098677 42.32474481 -45.8203125 33.04296875 C-46.14179561 23.15200495 -44.54539856 15.7359932 -38.25 8 C-28.20642096 -2.64576366 -13.52600988 -6.56062075 0 0 Z " fill="#E91A23" transform="translate(269.5,72.6875)"/>
</svg>
